# xmcd
#
# Track frame offsets: 
#        150
#        4577
#        27201
#        41021
#        73242
#        93329
#
# Disc length: 1267 seconds
#
# Revision: 0
# Processed by: cddbd v1.5.2PL0 Copyright (c) Steve Scherf et al.
# Submitted via: ExactAudioCopy v0.95b3
#
DISCID=4404f106
DTITLE=Jimi Hendrix  - Miami Pop - 1968.05.18  FLAC
DYEAR=1900
DGENRE=
TTITLE0=Intro
TTITLE1=Foxy Lady
TTITLE2=Fire
TTITLE3=Hear My Train A Comin'
TTITLE4=Purple Haze
TTITLE5=Outro
EXTD=
EXTT0=
EXTT1=
EXTT2=
EXTT3=
EXTT4=
EXTT5=
PLAYORDER=
